<svg width="24" height="24" viewBox="0 0 24 24" fill="none" xmlns="http://www.w3.org/2000/svg">
<path d="M18.3934 5.64172L15.0801 2.32839C14.9716 2.21904 14.8426 2.13224 14.7004 2.07301C14.5582 2.01378 14.4057 1.98329 14.2517 1.98329C14.0977 1.98329 13.9452 2.01378 13.803 2.07301C13.6609 2.13224 13.5318 2.21904 13.4234 2.32839C13.2061 2.54698 13.0841 2.84267 13.0841 3.15089C13.0841 3.4591 13.2061 3.7548 13.4234 3.97339L15.8967 6.44672L6.44672 15.8967L3.97339 13.4234C3.7548 13.2061 3.4591 13.0841 3.15089 13.0841C2.84267 13.0841 2.54698 13.2061 2.32839 13.4234C2.21904 13.5318 2.13224 13.6609 2.07301 13.803C2.01378 13.9452 1.98329 14.0977 1.98329 14.2517C1.98329 14.4057 2.01378 14.5582 2.07301 14.7004C2.13224 14.8426 2.21904 14.9716 2.32839 15.0801L5.60672 18.3584L8.88505 21.6367C8.9931 21.747 9.12196 21.8347 9.26414 21.8947C9.40633 21.9548 9.55903 21.9861 9.71339 21.9867C9.94512 21.9881 10.172 21.9204 10.3651 21.7923C10.5582 21.6642 10.7088 21.4815 10.7977 21.2675C10.8865 21.0534 10.9096 20.8178 10.864 20.5906C10.8185 20.3634 10.7063 20.1549 10.5417 19.9917L8.10339 17.5534L17.5534 8.10339L20.0267 10.5767C20.1355 10.6847 20.2645 10.7703 20.4063 10.8284C20.5481 10.8866 20.7001 10.9162 20.8533 10.9157C21.0066 10.9152 21.1583 10.8844 21.2997 10.8253C21.4412 10.7661 21.5695 10.6797 21.6776 10.5709C21.7856 10.4621 21.8711 10.3331 21.9293 10.1913C21.9874 10.0495 22.0171 9.89756 22.0165 9.74426C22.016 9.59097 21.9853 9.43928 21.9261 9.29786C21.8669 9.15645 21.7805 9.02807 21.6717 8.92005L18.3934 5.64172ZM2.32839 18.3701C2.1087 18.1504 1.81074 18.0269 1.50005 18.0269C1.18937 18.0269 0.891408 18.1504 0.67172 18.3701C0.452032 18.5897 0.328613 18.8877 0.328613 19.1984C0.328613 19.5091 0.452032 19.807 0.67172 20.0267L3.97339 23.3284C4.0824 23.4365 4.21169 23.5221 4.35383 23.5801C4.49597 23.6382 4.64818 23.6676 4.80172 23.6667C4.95526 23.6676 5.10747 23.6382 5.24961 23.5801C5.39176 23.5221 5.52104 23.4365 5.63005 23.3284C5.7394 23.2199 5.8262 23.0909 5.88543 22.9487C5.94466 22.8066 5.97515 22.6541 5.97515 22.5001C5.97515 22.346 5.94466 22.1936 5.88543 22.0514C5.8262 21.9092 5.7394 21.7802 5.63005 21.6717L2.32839 18.3701ZM23.3284 3.97339L20.0267 0.67172C19.9179 0.562942 19.7888 0.476654 19.6467 0.417784C19.5046 0.358913 19.3522 0.328613 19.1984 0.328613C19.0445 0.328613 18.8922 0.358913 18.7501 0.417784C18.608 0.476654 18.4788 0.562942 18.3701 0.67172C18.2613 0.780498 18.175 0.909637 18.1161 1.05176C18.0572 1.19389 18.0269 1.34622 18.0269 1.50005C18.0269 1.65389 18.0572 1.80622 18.1161 1.94834C18.175 2.09047 18.2613 2.21961 18.3701 2.32839L21.6717 5.63005C21.7802 5.7394 21.9092 5.8262 22.0514 5.88543C22.1935 5.94466 22.346 5.97515 22.5001 5.97515C22.6541 5.97515 22.8066 5.94466 22.9487 5.88543C23.0909 5.8262 23.2199 5.7394 23.3284 5.63005C23.4377 5.5216 23.5245 5.39256 23.5838 5.25039C23.643 5.10822 23.6735 4.95573 23.6735 4.80172C23.6735 4.64771 23.643 4.49522 23.5838 4.35305C23.5245 4.21088 23.4377 4.08184 23.3284 3.97339Z" fill="#101010"/>
</svg>
