<svg width="24" height="8" viewBox="0 0 24 8" fill="none" xmlns="http://www.w3.org/2000/svg">
<path d="M22.5007 0.5C22.1912 0.5 21.8945 0.622917 21.6757 0.841709C21.4569 1.0605 21.334 1.35725 21.334 1.66667V5.16667H2.66732V1.66667C2.66732 1.35725 2.5444 1.0605 2.32561 0.841709C2.10682 0.622917 1.81007 0.5 1.50065 0.5C1.19123 0.5 0.894486 0.622917 0.675693 0.841709C0.456901 1.0605 0.333984 1.35725 0.333984 1.66667V6.33333C0.333984 6.64275 0.456901 6.9395 0.675693 7.15829C0.894486 7.37708 1.19123 7.5 1.50065 7.5H22.5007C22.8101 7.5 23.1068 7.37708 23.3256 7.15829C23.5444 6.9395 23.6673 6.64275 23.6673 6.33333V1.66667C23.6673 1.35725 23.5444 1.0605 23.3256 0.841709C23.1068 0.622917 22.8101 0.5 22.5007 0.5Z" fill="#292929"/>
</svg>
