<svg width="20" height="24" viewBox="0 0 20 24" fill="none" xmlns="http://www.w3.org/2000/svg">
<path d="M12.3327 10.834H11.166V9.66732C11.166 9.3579 11.0431 9.06115 10.8243 8.84236C10.6055 8.62357 10.3088 8.50065 9.99935 8.50065C9.68993 8.50065 9.39318 8.62357 9.17439 8.84236C8.9556 9.06115 8.83268 9.3579 8.83268 9.66732V10.834H7.66602C7.3566 10.834 7.05985 10.9569 6.84106 11.1757C6.62227 11.3945 6.49935 11.6912 6.49935 12.0007C6.49935 12.3101 6.62227 12.6068 6.84106 12.8256C7.05985 13.0444 7.3566 13.1673 7.66602 13.1673H8.83268V14.334C8.83268 14.6434 8.9556 14.9402 9.17439 15.1589C9.39318 15.3777 9.68993 15.5007 9.99935 15.5007C10.3088 15.5007 10.6055 15.3777 10.8243 15.1589C11.0431 14.9402 11.166 14.6434 11.166 14.334V13.1673H12.3327C12.6421 13.1673 12.9388 13.0444 13.1576 12.8256C13.3764 12.6068 13.4993 12.3101 13.4993 12.0007C13.4993 11.6912 13.3764 11.3945 13.1576 11.1757C12.9388 10.9569 12.6421 10.834 12.3327 10.834ZM18.902 2.25887C18.767 2.1499 18.6095 2.07218 18.4409 2.03131C18.2723 1.99044 18.0967 1.98742 17.9268 2.02247C16.6799 2.286 15.3923 2.29077 14.1435 2.03649C12.8948 1.78222 11.7115 1.2743 10.667 0.544195C10.4712 0.407366 10.2382 0.333984 9.99935 0.333984C9.76052 0.333984 9.52745 0.407366 9.3317 0.544195C8.28735 1.2746 7.10409 1.7827 5.85529 2.03699C4.60648 2.29128 3.31876 2.28633 2.07194 2.02247C1.90209 1.98681 1.72642 1.98952 1.55774 2.03038C1.38906 2.07124 1.23163 2.14923 1.09692 2.25867C0.962217 2.3681 0.853631 2.50622 0.779085 2.66295C0.704538 2.81968 0.66591 2.99108 0.666016 3.16463V11.8645C0.667739 13.5355 1.06742 15.182 1.83198 16.6679C2.59654 18.1537 3.70399 19.4361 5.06266 20.4088L9.32152 23.4503C9.51937 23.5915 9.75636 23.6674 9.99941 23.6674C10.2425 23.6674 10.4794 23.5915 10.6773 23.4503L14.9361 20.4083C16.2948 19.4357 17.4023 18.1535 18.1668 16.6677C18.9314 15.1819 19.331 13.5354 19.3327 11.8645V3.16467C19.3327 2.99118 19.294 2.81987 19.2195 2.66319C19.145 2.50651 19.0366 2.36839 18.902 2.25887ZM16.9993 11.8645C16.9979 13.164 16.687 14.4445 16.0925 15.6C15.4979 16.7556 14.6367 17.7529 13.5802 18.5096L9.99935 21.0668L6.41845 18.5102C5.36198 17.7533 4.50086 16.7559 3.90632 15.6003C3.31177 14.4446 3.00088 13.1641 2.99935 11.8645V4.51415C5.44558 4.72676 7.89626 4.15856 9.99935 2.89118C12.1024 4.15856 14.5531 4.72676 16.9993 4.51415V11.8645Z" fill="#292929"/>
</svg>
