<svg
      width="32"
      height="23"
      viewBox="0 0 32 23"
      fill="none"
      xmlns="http://www.w3.org/2000/svg"
    >
      <path
        d="M23.4988 6.30729C24.0921 6.30729 24.6722 6.12646 25.1655 5.78766C25.6589 5.44886 26.0434 4.96731 26.2704 4.4039C26.4975 3.8405 26.5569 3.22054 26.4412 2.62243C26.3254 2.02432 26.0397 1.47493 25.6201 1.04371C25.2006 0.612502 24.666 0.318843 24.0841 0.199872C23.5021 0.0809007 22.8989 0.141961 22.3507 0.375331C21.8026 0.608701 21.334 1.0039 21.0044 1.51095C20.6747 2.018 20.4988 2.61413 20.4988 3.22396C20.4988 4.04171 20.8149 4.82597 21.3775 5.40421C21.9401 5.98244 22.7032 6.30729 23.4988 6.30729ZM2.0638 13.4606C2.36103 13.5583 2.64757 13.6875 2.9188 13.846C3.85169 14.4069 4.91301 14.7025 5.9938 14.7025C7.07459 14.7025 8.1359 14.4069 9.0688 13.846C9.65542 13.5085 10.3165 13.3312 10.9888 13.3312C11.6611 13.3312 12.3222 13.5085 12.9088 13.846L13.2238 14.0002C14.134 14.4556 15.1387 14.6755 16.1505 14.6405C17.1623 14.6056 18.1504 14.317 19.0288 13.7998C19.6154 13.4622 20.2765 13.2849 20.9488 13.2849C21.6211 13.2849 22.2822 13.4622 22.8688 13.7998C23.8194 14.3582 24.8939 14.6555 25.9888 14.6631C27.0453 14.6519 28.0802 14.354 28.9888 13.7998C29.26 13.6412 29.5466 13.512 29.8438 13.4144C30.0655 13.3987 30.281 13.3326 30.4748 13.2208C30.6686 13.109 30.8359 12.9544 30.9644 12.7681C31.0929 12.5818 31.1796 12.3684 31.2181 12.1435C31.2566 11.9185 31.246 11.6876 31.187 11.4674C31.1281 11.2472 31.0223 11.0432 30.8772 10.8701C30.7322 10.6971 30.5515 10.5593 30.3484 10.4668C30.1452 10.3743 29.9245 10.3293 29.7024 10.3352C29.4802 10.341 29.2621 10.3975 29.0638 10.5006C28.5404 10.6676 28.0372 10.8952 27.5638 11.179C27.0849 11.4631 26.5417 11.6127 25.9888 11.6127C25.4359 11.6127 24.8927 11.4631 24.4138 11.179C23.3747 10.5765 22.2019 10.2599 21.0088 10.2599C19.8158 10.2599 18.6429 10.5765 17.6038 11.179C17.4627 11.2499 17.3174 11.3116 17.1688 11.364L19.5088 8.95896C19.5624 8.88755 19.6077 8.80994 19.6438 8.72771C19.7117 8.65188 19.772 8.56924 19.8238 8.48104C19.8308 8.38354 19.8308 8.28563 19.8238 8.18813C19.8323 8.09069 19.8323 7.99265 19.8238 7.89521C19.831 7.80286 19.831 7.71006 19.8238 7.61771C19.8323 7.52027 19.8323 7.42224 19.8238 7.32479C19.7794 7.23417 19.7293 7.14662 19.6738 7.06271C19.6349 6.97391 19.5844 6.89093 19.5238 6.81604L14.9188 1.68229C14.7977 1.54654 14.6558 1.43199 14.4988 1.34313C14.3943 1.3289 14.2883 1.3289 14.1838 1.34313C14.0994 1.32902 14.0132 1.32902 13.9288 1.34313C13.7291 1.26055 13.513 1.22881 13.2988 1.25063L7.9888 3.28563C7.61494 3.42478 7.31014 3.7108 7.14138 4.08083C6.97262 4.45085 6.9537 4.87461 7.0888 5.25896C7.22419 5.6432 7.50248 5.95647 7.86251 6.12992C8.22253 6.30337 8.63484 6.32281 9.0088 6.18396L13.4038 4.53438L16.4038 7.80271L13.5538 10.7319C12.5989 10.3504 11.5736 10.1912 10.5517 10.2658C9.52972 10.3405 8.5366 10.6471 7.6438 11.1635C7.16494 11.4477 6.62174 11.5973 6.0688 11.5973C5.51586 11.5973 4.97266 11.4477 4.4938 11.1635C4.02043 10.8797 3.5172 10.6522 2.9938 10.4852C2.80187 10.4116 2.59732 10.3792 2.39274 10.39C2.18816 10.4007 1.98789 10.4545 1.80429 10.5478C1.62068 10.6412 1.45763 10.7722 1.32518 10.9328C1.19273 11.0934 1.09369 11.2802 1.03417 11.4817C0.974648 11.6831 0.955906 11.895 0.979097 12.1042C1.00229 12.3133 1.06692 12.5154 1.16901 12.698C1.27111 12.8805 1.40849 13.0396 1.5727 13.1654C1.73691 13.2913 1.92446 13.3813 2.1238 13.4298L2.0638 13.4606ZM29.0638 18.2244C28.5404 18.3913 28.0372 18.6189 27.5638 18.9027C27.0849 19.1869 26.5417 19.3365 25.9888 19.3365C25.4359 19.3365 24.8927 19.1869 24.4138 18.9027C23.3747 18.3002 22.2019 17.9837 21.0088 17.9837C19.8158 17.9837 18.6429 18.3002 17.6038 18.9027C17.1209 19.1911 16.5723 19.343 16.0138 19.343C15.4553 19.343 14.9067 19.1911 14.4238 18.9027C13.3847 18.3002 12.2118 17.9837 11.0188 17.9837C9.82575 17.9837 8.65291 18.3002 7.6138 18.9027C7.13494 19.1869 6.59174 19.3365 6.0388 19.3365C5.48586 19.3365 4.94266 19.1869 4.4638 18.9027C3.99043 18.6189 3.4872 18.3913 2.9638 18.2244C2.77187 18.1508 2.56732 18.1184 2.36274 18.1291C2.15816 18.1399 1.95789 18.1936 1.77429 18.287C1.59068 18.3803 1.42763 18.5114 1.29518 18.672C1.16273 18.8326 1.06369 19.0194 1.00417 19.2208C0.944649 19.4223 0.925906 19.6341 0.949097 19.8433C0.972288 20.0525 1.03692 20.2546 1.13901 20.4371C1.24111 20.6196 1.37849 20.7787 1.5427 20.9046C1.70691 21.0305 1.89446 21.1204 2.0938 21.169C2.39103 21.2666 2.67757 21.3958 2.9488 21.5544C3.88169 22.1153 4.94301 22.4109 6.0238 22.4109C7.10459 22.4109 8.1659 22.1153 9.0988 21.5544C9.68542 21.2168 10.3465 21.0395 11.0188 21.0395C11.6911 21.0395 12.3522 21.2168 12.9388 21.5544C13.8798 22.1074 14.9449 22.3983 16.0288 22.3983C17.1127 22.3983 18.1778 22.1074 19.1188 21.5544C19.7054 21.2168 20.3665 21.0395 21.0388 21.0395C21.7111 21.0395 22.3722 21.2168 22.9588 21.5544C23.9094 22.1128 24.9839 22.4101 26.0788 22.4177C27.1353 22.4064 28.1702 22.1086 29.0788 21.5544C29.35 21.3958 29.6366 21.2666 29.9338 21.169C30.1229 21.1103 30.2989 21.0138 30.4518 20.8852C30.6046 20.7566 30.7313 20.5983 30.8246 20.4193C30.918 20.2404 30.9761 20.0443 30.9957 19.8423C31.0152 19.6403 30.9959 19.4362 30.9388 19.2419C30.8817 19.0475 30.7879 18.8666 30.6627 18.7095C30.5376 18.5524 30.3836 18.4222 30.2094 18.3263C30.0353 18.2304 29.8445 18.1707 29.648 18.1505C29.4514 18.1304 29.2529 18.1503 29.0638 18.209V18.2244Z"
        fill="#292929"
      />
    </svg>