<svg width="22" height="24" viewBox="0 0 22 24" fill="none" xmlns="http://www.w3.org/2000/svg">
<path d="M18 4.99957H13.8117L16.495 2.3279C16.6038 2.21912 16.6901 2.08998 16.7489 1.94786C16.8078 1.80573 16.8381 1.6534 16.8381 1.49957C16.8381 1.34573 16.8078 1.1934 16.7489 1.05127C16.6901 0.909149 16.6038 0.78001 16.495 0.671232C16.3862 0.562454 16.2571 0.476166 16.115 0.417296C15.9728 0.358425 15.8205 0.328125 15.6667 0.328125C15.356 0.328125 15.058 0.451544 14.8383 0.671232L11 4.4629L9.635 2.12957C9.5584 1.99627 9.45629 1.87938 9.33451 1.78554C9.21272 1.69171 9.07365 1.62279 8.92523 1.58271C8.77681 1.54262 8.62195 1.53216 8.46949 1.55193C8.31703 1.57169 8.16996 1.62129 8.03667 1.6979C7.90337 1.7745 7.78648 1.87661 7.69265 1.99839C7.59882 2.12017 7.52989 2.25924 7.48981 2.40766C7.44972 2.55608 7.43927 2.71094 7.45903 2.8634C7.47879 3.01587 7.5284 3.16294 7.605 3.29623L8.66667 4.99957H4C3.07174 4.99957 2.1815 5.36831 1.52513 6.02469C0.868749 6.68107 0.5 7.57131 0.5 8.49957V17.8329C0.5 18.7612 0.868749 19.6514 1.52513 20.3078C2.1815 20.9641 3.07174 21.3329 4 21.3329V22.4996C4 22.809 4.12292 23.1057 4.34171 23.3245C4.5605 23.5433 4.85725 23.6662 5.16667 23.6662C5.47609 23.6662 5.77283 23.5433 5.99162 23.3245C6.21042 23.1057 6.33333 22.809 6.33333 22.4996V21.3329H15.6667V22.4996C15.6667 22.809 15.7896 23.1057 16.0084 23.3245C16.2272 23.5433 16.5239 23.6662 16.8333 23.6662C17.1428 23.6662 17.4395 23.5433 17.6583 23.3245C17.8771 23.1057 18 22.809 18 22.4996V21.3329C18.9283 21.3329 19.8185 20.9641 20.4749 20.3078C21.1313 19.6514 21.5 18.7612 21.5 17.8329V8.49957C21.5 7.57131 21.1313 6.68107 20.4749 6.02469C19.8185 5.36831 18.9283 4.99957 18 4.99957ZM19.1667 17.8329C19.1667 18.1423 19.0438 18.4391 18.825 18.6579C18.6062 18.8766 18.3094 18.9996 18 18.9996H4C3.69058 18.9996 3.39383 18.8766 3.17504 18.6579C2.95625 18.4391 2.83333 18.1423 2.83333 17.8329V8.49957C2.83333 8.19015 2.95625 7.8934 3.17504 7.67461C3.39383 7.45581 3.69058 7.3329 4 7.3329H18C18.3094 7.3329 18.6062 7.45581 18.825 7.67461C19.0438 7.8934 19.1667 8.19015 19.1667 8.49957V17.8329Z" fill="#292929"/>
</svg>
