<svg width="31" height="31" viewBox="0 0 31 31" fill="none" xmlns="http://www.w3.org/2000/svg">
<path fill-rule="evenodd" clip-rule="evenodd" d="M9.13786 2.95161C5.37973 2.95161 2.9516 5.52849 2.9516 9.5039V21.4827C2.9516 22.5983 3.15869 23.5943 3.51306 24.4562C3.52836 24.4379 3.86206 24.0313 4.29739 23.5008C5.1483 22.4638 6.38751 20.9537 6.39619 20.946C7.40535 19.7939 9.29973 18.076 11.7862 19.1158C12.331 19.3417 12.8154 19.6512 13.2612 19.9361C13.3046 19.9638 13.3476 19.9913 13.3904 20.0185C14.226 20.577 14.7174 20.8395 15.2279 20.7958C15.4393 20.7666 15.6376 20.7039 15.8258 20.5872C16.5354 20.1497 18.3753 17.5428 18.9263 16.7621C19.0071 16.6476 19.0601 16.5724 19.0779 16.5491C20.6674 14.4783 23.1174 13.9241 25.1591 15.1491C25.4333 15.3124 27.3976 16.6847 28.0481 17.236V9.5039C28.0481 5.52849 25.6199 2.95161 21.8487 2.95161H9.13786ZM21.8487 0.917236C26.7735 0.917236 30.0824 4.36182 30.0824 9.5039V21.4827C30.0824 21.612 30.0689 21.7333 30.0553 21.8545C30.0457 21.9396 30.0362 22.0248 30.0314 22.1127C30.0283 22.1658 30.0268 22.2189 30.0252 22.272C30.0232 22.3429 30.0212 22.4137 30.0154 22.4845C30.0124 22.5122 30.007 22.5389 30.0015 22.5655C29.996 22.5921 29.9906 22.6187 29.9876 22.6464C29.9395 23.1043 29.8651 23.5418 29.7616 23.9662C29.7371 24.0723 29.7088 24.1745 29.6803 24.2777L29.6741 24.3002C29.5574 24.7114 29.4204 25.1037 29.2556 25.4785C29.2267 25.5415 29.1962 25.6029 29.1658 25.6643C29.1455 25.7053 29.1252 25.7462 29.1054 25.7877C28.9274 26.1449 28.7349 26.4877 28.5118 26.8056C28.4705 26.8644 28.4266 26.9196 28.3826 26.9748C28.3535 27.0113 28.3244 27.0479 28.296 27.0856C28.0641 27.386 27.822 27.6733 27.5479 27.9343C27.4931 27.9864 27.4339 28.034 27.3748 28.0816C27.3378 28.1114 27.3008 28.1412 27.2649 28.172C26.9835 28.4141 26.6962 28.646 26.3797 28.8443C26.3107 28.8877 26.2373 28.9241 26.1642 28.9604C26.1169 28.9838 26.0697 29.0072 26.0239 29.0324C25.7016 29.2104 25.3764 29.3839 25.022 29.5181C24.9368 29.5505 24.846 29.5739 24.7551 29.5974C24.6904 29.6141 24.6256 29.6308 24.5626 29.6508C24.5311 29.6605 24.4996 29.6703 24.4681 29.6801C24.1515 29.7786 23.836 29.8768 23.4951 29.9352C23.2977 29.9698 23.0881 29.9831 22.8784 29.9964C22.7876 30.0021 22.6969 30.0079 22.607 30.0154C22.5104 30.0226 22.4157 30.0342 22.3209 30.0459C22.1667 30.0649 22.0122 30.0839 21.8487 30.0839H9.13785C8.58952 30.0839 8.06598 30.0285 7.55994 29.9454C7.54098 29.9424 7.52348 29.9395 7.50598 29.9366C5.53285 29.5968 3.89515 28.6445 2.74744 27.2081C2.73947 27.2081 2.73634 27.2027 2.73217 27.1955C2.72947 27.1909 2.72634 27.1855 2.72119 27.1804C1.56765 25.7279 0.915771 23.7752 0.915771 21.4827V9.5039C0.915771 4.36182 4.22765 0.917236 9.13785 0.917236H21.8487ZM14.0416 10.4176C14.0416 12.3936 12.3883 14.0417 10.4029 14.0417C8.65768 14.0417 7.16967 12.7666 6.83618 11.1157C6.78107 10.868 6.74998 10.6133 6.74998 10.3501C6.74998 8.36004 8.36658 6.74999 10.3647 6.74999C11.3822 6.74999 12.3035 7.17783 12.9634 7.86041C13.6262 8.51907 14.0416 9.42683 14.0416 10.4176Z" fill="url(#paint0_linear_1_12075)"/>
<defs>
<linearGradient id="paint0_linear_1_12075" x1="29.7373" y1="1.99748" x2="1.16075" y2="13.3575" gradientUnits="userSpaceOnUse">
<stop offset="0.251155" stop-color="#FF385C"/>
<stop offset="1" stop-color="#1693C4"/>
</linearGradient>
</defs>
</svg>
